HIERARCHY
ROOT Hips
{
	OFFSET 0.000000 0.000000 0.000000
	CHANNELS 6 Xposition Yposition Zposition Xrotation Yrotation Zrotation
	JOINT LeftUpLeg_virtual
	{
		OFFSET 0.000000 0.000000 0.000000
		CHANNELS 3 Xrotation Yrotation Zrotation
		JOINT LeftUpLeg
		{
			OFFSET 15.427100 -6.655098 0.678600
			CHANNELS 3 Xrotation Yrotation Zrotation
			JOINT LeftLeg
			{
				OFFSET 4.081073 -39.591068 13.024000
				CHANNELS 3 Xrotation Yrotation Zrotation
				JOINT LeftFoot
				{
					OFFSET -4.081074 -37.707932 -15.979700
					CHANNELS 3 Xrotation Yrotation Zrotation
					JOINT LeftToeBase
					{
						OFFSET 5.346399 -15.068900 20.645000
						CHANNELS 3 Xrotation Yrotation Zrotation
						JOINT LeftToe_End
						{
							OFFSET 2.754700 0.931300 11.300900
							CHANNELS 3 Xrotation Yrotation Zrotation
							End Site
							{
								OFFSET 0 0 0
							}
						}
					}
				}
			}
		}
	}
	JOINT RightUpLeg_virtual
	{
		OFFSET 0.000000 0.000000 0.000000
		CHANNELS 3 Xrotation Yrotation Zrotation
		JOINT RightUpLeg
		{
			OFFSET -15.569500 -6.655098 0.678600
			CHANNELS 3 Xrotation Yrotation Zrotation
			JOINT RightLeg
			{
				OFFSET -4.081825 -39.591045 13.023800
				CHANNELS 3 Xrotation Yrotation Zrotation
				JOINT RightFoot
				{
					OFFSET 4.081824 -37.707954 -15.979600
					CHANNELS 3 Xrotation Yrotation Zrotation
					JOINT RightToeBase
					{
						OFFSET -5.346400 -15.068900 20.645000
						CHANNELS 3 Xrotation Yrotation Zrotation
						JOINT RightToe_End
						{
							OFFSET -2.754700 0.931300 11.300900
							CHANNELS 3 Xrotation Yrotation Zrotation
							End Site
							{
								OFFSET 0 0 0
							}
						}
					}
				}
			}
		}
	}
	JOINT Spine_virtual
	{
		OFFSET 0.000000 0.000000 0.000000
		CHANNELS 3 Xrotation Yrotation Zrotation
		JOINT Spine
		{
			OFFSET -0.279200 12.230698 -2.892100
			CHANNELS 3 Xrotation Yrotation Zrotation
			JOINT Spine1
			{
				OFFSET -0.232667 10.192268 -1.242267
				CHANNELS 3 Xrotation Yrotation Zrotation
				JOINT Spine1_split
				{
					OFFSET -0.232667 10.192268 -1.242267
					CHANNELS 3 Xrotation Yrotation Zrotation
					JOINT Spine2
					{
						OFFSET -0.232667 10.192268 -1.242267
						CHANNELS 3 Xrotation Yrotation Zrotation
						JOINT Neck_virtual
						{
							OFFSET 0.000000 0.000000 0.000000
							CHANNELS 3 Xrotation Yrotation Zrotation
							JOINT Neck
							{
								OFFSET -0.418800 17.814194 8.416900
								CHANNELS 3 Xrotation Yrotation Zrotation
								JOINT Head
								{
									OFFSET 0.000000 7.031097 3.806800
									CHANNELS 3 Xrotation Yrotation Zrotation
									JOINT HeadTop_End
									{
										OFFSET 0.000000 24.646606 12.978600
										CHANNELS 3 Xrotation Yrotation Zrotation
										End Site
										{
											OFFSET 0 0 0
										}
									}
								}
							}
						}
						JOINT LeftShoulder_virtual
						{
							OFFSET 0.000000 0.000000 0.000000
							CHANNELS 3 Xrotation Yrotation Zrotation
							JOINT LeftShoulder
							{
								OFFSET 8.476499 7.247704 -3.868750
								CHANNELS 3 Xrotation Yrotation Zrotation
								JOINT LeftShoulder_split
								{
									OFFSET 8.476499 7.247704 -3.868750
									CHANNELS 3 Xrotation Yrotation Zrotation
									JOINT LeftArm
									{
										OFFSET 9.308998 -2.777710 0.208600
										CHANNELS 3 Xrotation Yrotation Zrotation
										JOINT LeftForeArm
										{
											OFFSET 29.972298 0.000000 0.000000
											CHANNELS 3 Xrotation Yrotation Zrotation
											JOINT LeftHand
											{
												OFFSET 26.026505 0.000000 0.000000
												CHANNELS 3 Xrotation Yrotation Zrotation
												End Site
												{
													OFFSET 0 0 0
												}
											}
										}
									}
								}
							}
						}
						JOINT RightShoulder_virtual
						{
							OFFSET 0.000000 0.000000 0.000000
							CHANNELS 3 Xrotation Yrotation Zrotation
							JOINT RightShoulder
							{
								OFFSET -7.570500 7.247704 -3.868750
								CHANNELS 3 Xrotation Yrotation Zrotation
								JOINT RightShoulder_split
								{
									OFFSET -7.570500 7.247704 -3.868750
									CHANNELS 3 Xrotation Yrotation Zrotation
									JOINT RightArm
									{
										OFFSET -9.308998 -2.777710 0.208500
										CHANNELS 3 Xrotation Yrotation Zrotation
										JOINT RightForeArm
										{
											OFFSET -29.972300 0.000000 0.000000
											CHANNELS 3 Xrotation Yrotation Zrotation
											JOINT RightHand
											{
												OFFSET -26.026505 0.000000 0.000000
												CHANNELS 3 Xrotation Yrotation Zrotation
												End Site
												{
													OFFSET 0 0 0
												}
											}
										}
									}
								}
							}
						}
					}
				}
			}
		}
	}
}
MOTION
Frames: 9
Frame Time: 0.03333333
-0.204779 87.537827 2.278206 0.000000 0.000000 0.000000 -5.423548 -44.042812 -5.254467 -25.026885 2.484048 19.003567 30.083097 -14.650438 -3.246202 -8.759901 2.704805 -7.284707 -0.287060 -4.501662 -1.894722 0.000000 0.000000 0.000000 -7.757141 -41.576977 -5.448481 0.745554 -13.352555 -20.962045 24.281182 -9.270958 -1.958154 -20.414488 -1.277760 22.497463 -3.381628 0.181671 2.531929 0.000000 0.000000 0.000000 -4.620638 -45.302111 -4.571510 5.971269 6.248662 -0.493203 10.911836 9.304890 -3.338297 0.528699 -3.012949 0.897082 0.000000 0.000000 0.000000 11.475233 9.121631 -3.573515 -4.748188 -2.731078 -0.058205 -4.019519 24.515357 -1.466387 0.000000 0.000000 0.000000 11.824941 9.233763 -3.321492 2.000400 0.215470 -7.471319 -3.669968 -2.335199 -0.640513 -13.353197 4.897928 -62.271702 10.291638 -46.300579 6.316116 0.000000 0.000000 0.000000 11.389946 9.248116 -3.188444 2.933902 7.011696 9.741841 -0.874304 3.555536 1.207407 -0.532979 -24.566329 62.681350 -3.207792 44.410556 5.824570 0.000000 0.000000 0.000000 
-0.383107 87.365356 1.933216 0.000000 0.000000 0.000000 -5.491852 -44.319868 -5.000627 -25.107419 2.114628 17.972632 30.187691 -13.785618 -2.974382 -9.039607 3.060060 -5.917126 -0.686583 -4.409282 -2.309963 0.000000 0.000000 0.000000 -7.620427 -41.382231 -5.252980 0.415158 -13.695030 -20.921226 25.167727 -9.910427 -1.839530 -21.292809 -1.919802 21.737968 -1.581963 0.391169 2.403409 0.000000 0.000000 0.000000 -5.001482 -44.929497 -4.739213 6.333816 6.225578 -0.570073 10.965345 9.242632 -3.394605 0.952638 -3.159614 1.088587 0.000000 0.000000 0.000000 11.313703 9.020955 -3.542120 -4.946630 -2.432779 -0.361430 -3.803833 24.487893 -1.465521 0.000000 0.000000 0.000000 11.765619 9.116816 -3.391072 2.071037 0.270367 -7.387050 -3.397129 -3.010477 -0.528810 -13.317853 4.625229 -62.034599 10.284166 -47.113190 6.337379 0.000000 0.000000 0.000000 11.477118 9.194083 -3.165523 3.025114 6.959506 9.909818 -0.744815 3.609041 0.944344 0.228334 -25.236866 62.584422 -2.808991 43.377131 5.663087 0.000000 0.000000 0.000000 
-0.457147 87.079651 1.356136 0.000000 0.000000 0.000000 -5.388411 -43.793793 -4.538047 -25.484182 1.267313 16.814988 30.725312 -13.249880 -2.413223 -8.359134 2.663475 -6.060680 -0.945035 -4.387878 -2.147474 0.000000 0.000000 0.000000 -7.369836 -40.974059 -4.831573 -0.354725 -13.516674 -21.175922 27.517041 -10.492499 -1.733652 -21.285129 -2.385310 21.804378 -2.767787 0.667431 2.191074 0.000000 0.000000 0.000000 -5.273668 -44.308861 -4.720124 6.895339 6.006962 -0.564061 10.955774 8.943363 -3.400022 1.206796 -2.834786 0.893549 0.000000 0.000000 0.000000 11.107268 8.724530 -3.505054 -5.509813 -2.036494 -0.701673 -3.428948 24.301221 -1.440047 0.000000 0.000000 0.000000 11.737800 8.796501 -3.386476 2.153158 0.189400 -7.381620 -3.224275 -3.623103 -0.513710 -13.082585 4.237329 -61.322900 10.491919 -47.821156 6.367065 0.000000 0.000000 0.000000 11.518401 8.939465 -3.119621 3.071627 6.832459 10.050337 -0.982506 3.950254 0.699436 1.136012 -25.522699 62.466000 -1.847066 42.755632 5.222638 0.000000 0.000000 0.000000 
-0.507008 86.775253 0.837532 0.000000 0.000000 0.000000 -5.110736 -42.814918 -4.009189 -26.249660 0.212806 15.759499 31.326745 -12.791791 -1.769974 -6.905205 1.652218 -7.361370 -1.338498 -4.450773 -1.235620 0.000000 0.000000 0.000000 -6.980406 -40.270194 -4.271087 -1.039681 -12.774696 -21.254821 30.062856 -11.096161 -1.941064 -20.907074 -2.684219 22.451074 -5.944099 0.986587 2.063823 0.000000 0.000000 0.000000 -5.355982 -43.537897 -4.509511 7.498881 5.676567 -0.473132 10.874710 8.477928 -3.375643 0.942732 -2.011644 0.632763 0.000000 0.000000 0.000000 10.898408 8.286113 -3.487788 -6.413448 -1.600797 -1.046112 -2.920248 23.879979 -1.349873 0.000000 0.000000 0.000000 11.750050 8.330007 -3.346321 2.236298 0.015752 -7.491661 -3.332943 -4.025924 -0.689752 -12.620797 3.735658 -60.152158 10.835322 -48.169469 6.361303 0.000000 0.000000 0.000000 11.554144 8.534720 -3.076724 3.092226 6.655990 10.136471 -1.413511 4.416963 0.476327 2.135179 -25.018479 62.433482 -0.398459 42.549695 4.529558 0.000000 0.000000 0.000000 
-0.443733 86.404289 0.408066 0.000000 0.000000 0.000000 -4.552794 -41.535825 -3.448310 -27.434628 -0.640887 14.821954 31.733172 -11.873413 -1.206271 -5.183224 0.526009 -8.758759 -1.888697 -4.602829 0.251141 0.000000 0.000000 0.000000 -6.198493 -39.276272 -3.587730 -1.241214 -11.598387 -20.678299 31.587801 -12.272983 -2.670760 -20.831336 -3.009018 22.836527 -8.240117 1.412356 2.104825 0.000000 0.000000 0.000000 -5.144503 -42.613079 -4.136524 7.992535 5.328787 -0.343223 10.766146 7.938176 -3.339576 0.673949 -1.124577 0.484190 0.000000 0.000000 0.000000 10.717603 7.786509 -3.504755 -7.628075 -1.187631 -1.385685 -2.347975 23.151491 -1.176496 0.000000 0.000000 0.000000 11.802365 7.806410 -3.313181 2.285326 -0.235065 -7.680587 -3.632384 -4.409151 -1.070154 -12.077946 3.013117 -58.534113 11.270603 -48.033486 6.311828 0.000000 0.000000 0.000000 11.623793 8.081248 -3.060146 3.081203 6.489296 10.155276 -1.741956 4.829984 0.297454 3.028217 -23.750227 62.498710 1.416388 42.360768 3.607053 0.000000 0.000000 0.000000 
-0.333131 85.953644 0.291595 0.000000 0.000000 0.000000 -3.689576 -40.075073 -2.853668 -28.848356 -0.860158 13.928252 31.932097 -10.066354 -0.805855 -3.676800 -0.150709 -9.369350 -2.255999 -4.807158 1.803972 0.000000 0.000000 0.000000 -4.969098 -37.789350 -2.803288 -0.806998 -10.405110 -19.258895 31.349581 -14.161934 -3.871403 -21.186651 -3.425783 22.721739 -8.560019 1.983677 2.259039 0.000000 0.000000 0.000000 -4.493517 -41.320022 -3.582230 8.283396 5.029221 -0.258906 10.660356 7.405930 -3.314537 0.559725 -0.536659 0.327071 0.000000 0.000000 0.000000 10.599240 7.308031 -3.531742 -9.158419 -0.852051 -1.718699 -1.776157 22.107121 -0.917585 0.000000 0.000000 0.000000 11.861739 7.299761 -3.315304 2.269850 -0.574124 -7.897802 -3.888948 -4.788252 -1.576007 -11.708290 2.016262 -56.557501 11.791972 -47.300132 6.230320 0.000000 0.000000 0.000000 11.755229 7.655625 -3.067861 3.016933 6.415413 10.093816 -1.950464 4.900407 0.231497 3.486431 -21.780655 62.525006 3.372339 41.839529 2.522252 0.000000 0.000000 0.000000 
-0.319101 85.457581 0.493835 0.000000 0.000000 0.000000 -2.474062 -38.466932 -2.217168 -30.411588 -0.396890 12.899952 32.361634 -7.264704 -0.505719 -2.623437 -0.030183 -8.743495 -2.267761 -4.922375 2.985128 0.000000 0.000000 0.000000 -3.301601 -35.692069 -1.962174 0.168736 -9.601270 -17.098754 29.635638 -16.470287 -5.518368 -21.535310 -3.812161 22.476447 -8.156634 2.736260 2.352779 0.000000 0.000000 0.000000 -3.515041 -39.558454 -2.895155 8.335431 4.829035 -0.272762 10.563916 6.950190 -3.294256 0.437754 -0.371732 0.299732 0.000000 0.000000 0.000000 10.538003 6.904112 -3.527107 -10.991905 -0.582879 -2.115332 -1.298075 20.802180 -0.578424 0.000000 0.000000 0.000000 11.871758 6.879634 -3.356377 2.173528 -1.041175 -8.166941 -4.087034 -5.030584 -1.962703 -11.974221 0.708757 -54.328277 12.517750 -46.055286 6.209244 0.000000 0.000000 0.000000 11.947498 7.303606 -3.090879 2.931089 6.490558 9.912260 -2.050549 4.682741 0.172840 3.208266 -19.271843 62.507344 5.133947 41.117879 1.441773 0.000000 0.000000 0.000000 
-0.287321 84.915627 1.157944 0.000000 0.000000 0.000000 -0.906153 -36.629652 -1.554217 -32.108033 0.704490 11.515069 33.454851 -3.603081 -0.253382 -2.341307 0.979249 -6.625411 -1.808629 -4.866248 3.472608 0.000000 0.000000 0.000000 -1.392615 -33.215627 -1.188634 1.407502 -9.298515 -14.491110 27.428865 -18.925969 -7.434943 -21.351069 -3.954358 22.580616 -8.360101 3.639566 2.304121 0.000000 0.000000 0.000000 -2.260491 -37.281133 -2.161978 8.184901 4.722815 -0.394242 10.475955 6.589232 -3.234677 0.476915 -0.577303 0.476026 0.000000 0.000000 0.000000 10.485531 6.586161 -3.450952 -13.091644 -0.303309 -2.654692 -0.958649 19.301838 -0.203119 0.000000 0.000000 0.000000 11.783452 6.570965 -3.385433 2.001806 -1.645140 -8.439616 -4.117595 -5.194292 -2.096209 -13.292508 -1.110998 -51.924871 13.534483 -44.653738 6.342760 0.000000 0.000000 0.000000 12.110850 7.027801 -3.095335 2.822753 6.706857 9.592860 -2.084231 4.375588 0.070896 1.753210 -16.603556 62.404932 6.482837 40.785710 0.446541 0.000000 0.000000 0.000000 
-0.136235 84.522064 2.480755 0.000000 0.000000 0.000000 0.797603 -34.691661 -0.966277 -33.666986 2.204468 9.714002 35.440998 0.230335 -0.026771 -3.043028 2.473801 -3.557380 -1.026549 -4.611614 3.174726 0.000000 0.000000 0.000000 0.454564 -30.480136 -0.634378 2.711028 -9.524099 -11.835694 25.702323 -21.379740 -9.455068 -20.497295 -3.813841 22.790031 -9.330612 4.600931 2.292225 0.000000 0.000000 0.000000 -0.724931 -34.531223 -1.453223 7.914594 4.676996 -0.576743 10.359096 6.314566 -3.109234 0.457937 -0.806446 0.701526 0.000000 0.000000 0.000000 10.399108 6.334863 -3.277843 -15.372637 0.101987 -3.421053 -0.787817 17.692994 0.184154 0.000000 0.000000 0.000000 11.566860 6.366608 -3.330037 1.775716 -2.412795 -8.732797 -3.956737 -5.078439 -2.002004 -15.676917 -3.734482 -49.565088 14.842015 -43.375649 6.658369 0.000000 0.000000 0.000000 12.150446 6.800077 -3.028773 2.682890 7.110302 9.091236 -1.950808 4.000692 -0.017340 -1.096604 -13.716285 62.281674 7.380100 41.423735 -0.539279 0.000000 0.000000 0.000000 
